<svg xmlns="http://www.w3.org/2000/svg" xmlns:xlink="http://www.w3.org/1999/xlink" width="100" height="100" fill-rule="nonzero" viewBox="0 0 256 256"><g fill="#ddd" fill-opacity="0" fill-rule="nonzero" stroke="none" stroke-dashoffset="0" stroke-linecap="butt" stroke-linejoin="miter" stroke-miterlimit="10" stroke-width="1" font-family="none" font-size="none" font-weight="none" text-anchor="none" style="mix-blend-mode:normal"><path id="bgRectangle" d="M0,256v-256h256v256z"/></g><g fill="none" fill-rule="nonzero" stroke="none" stroke-dashoffset="0" stroke-linecap="butt" stroke-linejoin="miter" stroke-miterlimit="10" stroke-width="none" font-family="none" font-size="none" font-weight="none" text-anchor="none" style="mix-blend-mode:normal"><g><path fill="#9580ff" stroke="none" stroke-width="1" d="M27,83.9375c-10.47656,0 -19,-8.52344 -19,-19v-25.875c0,-10.47656 8.52344,-19 19,-19h50c10.47656,0 19,8.52344 19,19v25.875c0,10.47656 -8.52344,19 -19,19z" opacity=".35" transform="scale(2.56,2.56)"/><path fill="#9580ff" stroke="none" stroke-width="1" d="M25,81.9375c-10.47656,0 -19,-8.52344 -19,-19v-25.875c0,-10.47656 8.52344,-19 19,-19h50c10.47656,0 19,8.52344 19,19v25.875c0,10.47656 -8.52344,19 -19,19z" transform="scale(2.56,2.56)"/><path fill="#27b0c1" stroke="#9580ff" stroke-width="3" d="M87.5,62.9375c0,6.90357 -5.59643,12.5 -12.5,12.5h-50c-6.90357,0 -12.5,-5.59643 -12.5,-12.5v-25.875c0,-6.90357 5.59643,-12.5 12.5,-12.5h50c6.90357,0 12.5,5.59643 12.5,12.5z" transform="scale(2.56,2.56)"/></g></g></svg>