<svg xmlns="http://www.w3.org/2000/svg" xmlns:xlink="http://www.w3.org/1999/xlink" style="margin:auto;background:#fff;display:block;shape-rendering:crispedges" width="55" height="55" preserveAspectRatio="xMidYMid" viewBox="0 0 100 100"><g transform="rotate(0 50 50)"><rect width="6" height="13" x="47" y="23.5" fill="#9580ff" rx="3" ry="4.03"><animate attributeName="opacity" begin="-0.9090909090909091s" dur="1s" keyTimes="0;1" repeatCount="indefinite" values="1;0"/></rect></g><g transform="rotate(32.72727272727273 50 50)"><rect width="6" height="13" x="47" y="23.5" fill="#9580ff" rx="3" ry="4.03"><animate attributeName="opacity" begin="-0.8181818181818182s" dur="1s" keyTimes="0;1" repeatCount="indefinite" values="1;0"/></rect></g><g transform="rotate(65.45454545454545 50 50)"><rect width="6" height="13" x="47" y="23.5" fill="#9580ff" rx="3" ry="4.03"><animate attributeName="opacity" begin="-0.7272727272727273s" dur="1s" keyTimes="0;1" repeatCount="indefinite" values="1;0"/></rect></g><g transform="rotate(98.18181818181819 50 50)"><rect width="6" height="13" x="47" y="23.5" fill="#9580ff" rx="3" ry="4.03"><animate attributeName="opacity" begin="-0.6363636363636364s" dur="1s" keyTimes="0;1" repeatCount="indefinite" values="1;0"/></rect></g><g transform="rotate(130.9090909090909 50 50)"><rect width="6" height="13" x="47" y="23.5" fill="#9580ff" rx="3" ry="4.03"><animate attributeName="opacity" begin="-0.5454545454545454s" dur="1s" keyTimes="0;1" repeatCount="indefinite" values="1;0"/></rect></g><g transform="rotate(163.63636363636363 50 50)"><rect width="6" height="13" x="47" y="23.5" fill="#9580ff" rx="3" ry="4.03"><animate attributeName="opacity" begin="-0.45454545454545453s" dur="1s" keyTimes="0;1" repeatCount="indefinite" values="1;0"/></rect></g><g transform="rotate(196.36363636363637 50 50)"><rect width="6" height="13" x="47" y="23.5" fill="#9580ff" rx="3" ry="4.03"><animate attributeName="opacity" begin="-0.36363636363636365s" dur="1s" keyTimes="0;1" repeatCount="indefinite" values="1;0"/></rect></g><g transform="rotate(229.0909090909091 50 50)"><rect width="6" height="13" x="47" y="23.5" fill="#9580ff" rx="3" ry="4.03"><animate attributeName="opacity" begin="-0.2727272727272727s" dur="1s" keyTimes="0;1" repeatCount="indefinite" values="1;0"/></rect></g><g transform="rotate(261.8181818181818 50 50)"><rect width="6" height="13" x="47" y="23.5" fill="#9580ff" rx="3" ry="4.03"><animate attributeName="opacity" begin="-0.18181818181818182s" dur="1s" keyTimes="0;1" repeatCount="indefinite" values="1;0"/></rect></g><g transform="rotate(294.54545454545456 50 50)"><rect width="6" height="13" x="47" y="23.5" fill="#9580ff" rx="3" ry="4.03"><animate attributeName="opacity" begin="-0.09090909090909091s" dur="1s" keyTimes="0;1" repeatCount="indefinite" values="1;0"/></rect></g><g transform="rotate(327.27272727272725 50 50)"><rect width="6" height="13" x="47" y="23.5" fill="#9580ff" rx="3" ry="4.03"><animate attributeName="opacity" begin="0s" dur="1s" keyTimes="0;1" repeatCount="indefinite" values="1;0"/></rect></g></svg>